<?xml version="1.0" standalone="no"?>
<!DOCTYPE svg PUBLIC "-//W3C//DTD SVG 20010904//EN"
 "http://www.w3.org/TR/2001/REC-SVG-20010904/DTD/svg10.dtd">
<svg version="1.0" xmlns="http://www.w3.org/2000/svg"
 width="260.000000pt" height="260.000000pt" viewBox="0 0 260.000000 260.000000"
 preserveAspectRatio="xMidYMid meet">
<metadata>
Created by potrace 1.14, written by Peter Selinger 2001-2017
</metadata>
<g transform="translate(0.000000,260.000000) scale(0.100000,-0.100000)"
fill="#000000" stroke="none">
<path d="M840 1968 c-53 -9 -100 -39 -123 -76 -21 -37 -28 -87 -30 -212 l-2
-94 -157 0 -158 0 0 -61 0 -61 148 1 c81 1 152 0 158 -2 15 -5 17 -640 3 -649
-5 -3 -74 -5 -152 -5 l-142 0 2 -42 c1 -23 2 -51 2 -62 1 -20 8 -20 381 -20
l380 0 0 62 0 63 -160 0 -160 0 2 328 3 327 178 0 177 0 0 60 0 61 -162 -1
c-90 -1 -171 1 -180 3 -16 4 -18 19 -18 133 l0 129 180 0 180 0 0 63 0 62
-154 0 c-85 0 -173 -3 -196 -7z"/>
<path d="M1887 1968 c-66 -9 -112 -43 -137 -100 -16 -38 -20 -68 -20 -161 0
-83 -3 -116 -12 -119 -7 -2 -79 -4 -160 -3 l-148 1 0 -61 0 -61 148 1 c81 1
153 -1 160 -3 9 -3 12 -78 12 -328 l0 -324 -152 0 -153 0 2 -32 c1 -18 2 -47
2 -63 l1 -30 380 0 380 0 0 62 0 63 -159 0 -159 0 0 324 c0 239 3 325 11 328
7 2 87 4 180 3 l167 0 0 60 0 60 -162 0 c-90 -1 -171 1 -180 3 -15 4 -17 18
-15 131 l2 126 178 3 177 2 0 63 0 62 -147 0 c-82 0 -170 -3 -196 -7z"/>
</g>
</svg>
