<?xml version="1.0" standalone="no"?>
<!DOCTYPE svg PUBLIC "-//W3C//DTD SVG 20010904//EN"
 "http://www.w3.org/TR/2001/REC-SVG-20010904/DTD/svg10.dtd">
<svg version="1.0" xmlns="http://www.w3.org/2000/svg"
 width="260.000000pt" height="260.000000pt" viewBox="0 0 260.000000 260.000000"
 preserveAspectRatio="xMidYMid meet">
<metadata>
Created by potrace 1.14, written by Peter Selinger 2001-2017
</metadata>
<g transform="translate(0.000000,260.000000) scale(0.100000,-0.100000)"
fill="#000000" stroke="none">
<path d="M80 1300 l0 -700 280 0 280 0 0 255 0 256 288 -1 c158 0 297 0 310 0
l22 0 0 190 0 190 -310 0 -310 0 0 40 0 40 310 0 310 0 0 215 0 215 -590 0
-590 0 0 -700z"/>
<path d="M1340 1300 l0 -700 280 0 280 0 2 253 3 252 295 2 c162 2 301 3 308
3 9 0 12 45 12 190 l0 190 -307 2 -308 3 -3 38 -3 37 310 0 311 0 0 215 0 215
-590 0 -590 0 0 -700z"/>
</g>
</svg>
