<?xml version="1.0" standalone="no"?>
<!DOCTYPE svg PUBLIC "-//W3C//DTD SVG 20010904//EN"
 "http://www.w3.org/TR/2001/REC-SVG-20010904/DTD/svg10.dtd">
<svg version="1.0" xmlns="http://www.w3.org/2000/svg"
 width="260.000000pt" height="260.000000pt" viewBox="0 0 260.000000 260.000000"
 preserveAspectRatio="xMidYMid meet">
<metadata>
Created by potrace 1.14, written by Peter Selinger 2001-2017
</metadata>
<g transform="translate(0.000000,260.000000) scale(0.100000,-0.100000)"
fill="#000000" stroke="none">
<path d="M1222 2500 c-52 -32 -57 -82 -29 -272 7 -49 10 -88 7 -88 -3 0 -12
42 -19 93 -16 110 -19 128 -25 134 -2 2 -27 1 -56 -3 -46 -6 -51 -9 -47 -28 2
-11 20 -90 38 -174 l34 -154 40 7 c21 3 41 8 44 10 2 3 -1 27 -6 55 -6 27 -7
50 -3 50 4 0 10 -14 14 -32 10 -52 32 -68 93 -68 49 0 55 2 73 32 10 17 22 49
25 70 4 21 11 38 16 38 4 0 6 -6 3 -14 -3 -8 -11 -41 -18 -74 l-12 -60 29 -6
c49 -10 52 -8 65 39 7 25 16 45 21 45 17 0 22 -33 10 -67 -13 -39 -13 -39 22
-48 22 -5 27 -2 42 32 26 58 28 80 6 107 l-20 26 26 10 c14 5 30 10 34 10 13
0 77 74 89 103 28 66 3 160 -51 184 -12 6 -56 19 -96 28 -59 15 -74 16 -81 5
-4 -7 -16 -56 -25 -109 -10 -53 -23 -121 -31 -151 l-13 -55 6 50 c3 28 7 59 9
70 8 41 5 141 -5 167 -14 37 -41 49 -116 52 -48 3 -71 -1 -93 -14z m111 -138
c3 -15 4 -49 2 -77 -1 -27 -3 -65 -4 -82 -1 -26 -5 -33 -21 -33 -11 0 -20 3
-21 8 -9 108 -8 196 1 207 16 20 37 8 43 -23z m266 -44 c11 -30 3 -55 -22 -73
-26 -18 -48 -19 -42 -2 2 6 9 31 15 55 12 46 35 56 49 20z"/>
<path d="M1080 2498 c-25 -6 -48 -13 -53 -17 -4 -4 -2 -31 5 -60 l12 -53 45 7
c25 4 51 8 58 8 15 0 6 97 -11 113 -7 7 -25 8 -56 2z"/>
<path d="M840 2425 c-20 -7 -59 -24 -88 -39 l-53 -27 34 -62 c192 -355 198
-366 215 -359 143 61 153 72 140 165 -35 260 -119 368 -248 322z m73 -132 c24
-27 58 -113 60 -153 2 -28 -2 -35 -16 -35 -13 0 -30 27 -61 97 -24 53 -41 99
-38 102 11 12 39 6 55 -11z"/>
<path d="M1788 2353 c-17 -19 -196 -353 -200 -374 -2 -6 11 -18 28 -25 31 -13
31 -13 69 42 21 29 41 54 46 54 23 0 17 -27 -15 -73 l-37 -52 28 -22 c15 -13
30 -23 33 -22 3 0 44 46 92 102 48 56 99 114 113 129 71 76 84 146 38 190 -70
66 -161 89 -195 51z m82 -131 c0 -10 -15 -39 -33 -64 -26 -38 -36 -45 -50 -37
-15 9 -13 15 20 64 36 55 63 71 63 37z"/>
<path d="M612 2303 l-52 -35 38 -47 c22 -25 69 -86 106 -135 61 -82 65 -91 51
-105 -14 -15 -22 -9 -88 59 -40 41 -93 99 -119 128 l-48 53 -64 -65 c-94 -96
-160 -188 -221 -311 -69 -139 -85 -205 -61 -257 47 -99 206 -89 272 17 49 76
76 55 49 -36 -10 -33 -16 -62 -13 -65 3 -3 35 -8 70 -11 l65 -5 20 59 c36 107
14 173 -68 205 -87 33 -160 15 -194 -48 -25 -46 -52 -61 -73 -41 -14 14 -10
26 37 121 29 59 56 106 61 106 5 0 77 -43 160 -96 84 -52 153 -94 154 -92 2 2
15 20 30 40 l27 37 -145 112 -146 113 22 23 22 23 34 -32 c19 -18 56 -54 83
-80 104 -101 149 -119 205 -84 62 39 77 83 52 142 -7 16 -49 86 -93 157 -44
70 -85 137 -91 148 -21 38 -29 38 -82 2z"/>
<path d="M2056 2189 c-10 -6 -48 -43 -85 -82 -36 -39 -101 -107 -143 -152
l-77 -80 27 -27 c14 -16 30 -28 36 -28 5 0 37 23 70 52 111 94 101 88 82 44
-26 -62 -23 -69 29 -63 25 2 45 3 45 1 0 -1 -38 -26 -85 -54 l-85 -51 26 -34
26 -34 46 19 c186 73 340 144 355 161 21 26 22 51 1 94 -21 46 -70 67 -130 59
l-47 -6 7 27 c24 96 19 128 -24 150 -34 18 -48 18 -74 4z"/>
<path d="M1268 1993 c-23 -6 -22 -8 2 -49 18 -28 19 -36 8 -53 -7 -12 -16 -21
-20 -21 -12 0 -65 85 -61 98 10 26 -42 12 -62 -18 -19 -29 -35 -39 -35 -22 0
4 -4 13 -8 20 -11 17 -82 -12 -82 -33 0 -11 -7 -14 -22 -10 -13 3 -30 1 -38
-5 -16 -11 -16 -11 39 -50 28 -20 26 -39 -8 -80 l-29 -35 -12 60 c-7 33 -16
64 -20 68 -13 15 -40 -5 -40 -30 0 -21 -3 -23 -14 -14 -29 25 -27 -10 3 -51
31 -41 40 -78 21 -78 -19 0 -49 39 -55 74 -5 24 -11 33 -21 29 -8 -3 -14 -14
-14 -25 0 -10 -4 -17 -9 -13 -5 3 -21 -9 -35 -27 -25 -32 -25 -32 -4 -46 16
-12 17 -16 7 -23 -8 -5 -21 -6 -30 -4 -9 3 -21 -1 -28 -8 -9 -12 3 -17 70 -30
100 -21 123 -35 81 -53 -53 -22 -89 -26 -103 -11 -8 7 -27 22 -42 32 -24 16
-30 16 -38 4 -12 -19 -11 -36 1 -44 6 -4 8 -11 4 -16 -3 -5 -9 -7 -14 -4 -5 3
-14 -3 -20 -14 -9 -19 -6 -20 42 -23 32 -2 53 -8 56 -16 4 -13 -83 -12 -241 4
-22 2 -78 6 -125 9 -161 9 -207 23 -232 69 -18 35 -26 33 -34 -11 -41 -237
-21 -466 59 -679 173 -460 622 -773 1114 -777 194 -2 318 22 490 92 374 155
650 496 728 901 25 133 24 325 -3 454 -5 25 -8 27 -18 15 -24 -34 -43 -39
-216 -55 -36 -3 -83 -7 -105 -9 -22 -2 -76 -7 -120 -10 -44 -4 -92 -8 -107
-10 -35 -3 -36 9 -3 31 22 15 38 53 16 40 -5 -4 -7 3 -4 13 3 10 -1 29 -7 41
-12 22 -12 22 -51 -16 -39 -38 -41 -38 -41 11 0 37 4 44 32 50 34 7 35 12 15
38 -9 13 -20 17 -35 12 -18 -6 -20 -4 -14 19 6 25 -21 75 -41 75 -5 0 -25 -20
-44 -44 -37 -50 -47 -54 -56 -26 -9 29 4 49 46 68 46 20 51 37 9 31 -26 -4
-29 -2 -24 15 8 25 -18 43 -28 19 -5 -14 -7 -13 -7 5 -1 12 -14 31 -30 42 -24
17 -31 19 -40 7 -7 -8 -21 -16 -32 -19 -17 -4 -19 -2 -13 16 11 37 10 39 -29
53 -34 12 -38 12 -50 -6 -16 -27 -22 -25 -37 10 -7 17 -19 30 -26 30 -18 0
-17 -5 2 -69 18 -61 15 -106 -6 -106 -7 0 -29 26 -48 57 l-34 58 21 35 20 35
-24 0 c-13 0 -29 -8 -34 -17 -6 -10 -11 -13 -11 -6 0 16 -30 31 -52 26z m-69
-212 c-21 -37 -35 -35 -47 7 -15 50 -15 78 0 105 11 21 13 19 36 -32 22 -49
24 -57 11 -80z m389 3 c-18 -19 -41 -40 -51 -46 -35 -18 -9 34 36 76 32 29 43
35 45 22 2 -9 -11 -32 -30 -52z m-236 -28 c34 -93 23 -111 -49 -81 -33 14 -35
17 -29 48 3 17 14 51 23 75 19 49 22 47 55 -42z m-283 -53 c1 -15 -27 -17 -49
-3 -12 8 -12 14 4 47 l19 38 13 -35 c7 -19 13 -41 13 -47z m545 25 c-2 -18 -5
-44 -7 -58 -4 -37 -25 -70 -41 -64 -7 3 -18 16 -24 29 -10 21 -6 30 30 74 23
28 42 51 44 51 1 0 0 -15 -2 -32z m-541 -100 c52 -37 23 -82 -33 -53 -28 14
-54 68 -43 88 5 8 33 -5 76 -35z m257 -23 c11 -13 11 -20 0 -40 -17 -31 -25
-31 -56 0 -22 22 -26 45 -15 83 2 6 58 -28 71 -43z m186 -14 c4 -25 2 -31 -14
-31 -29 0 -33 10 -15 41 20 33 23 32 29 -10z m278 -13 c-7 -48 -24 -98 -34
-98 -18 0 -31 31 -28 67 2 28 9 41 28 50 36 18 39 17 34 -19z m-108 -93 c-5
-18 -15 -26 -42 -31 -19 -3 -37 -4 -40 -1 -3 2 14 23 38 46 45 42 57 38 44
-14z m-745 5 c23 -19 23 -21 6 -34 -20 -16 -62 -8 -103 19 -35 23 -29 31 24
34 37 1 55 -3 73 -19z m-586 -125 c130 -11 192 -18 206 -20 9 -2 52 -6 95 -10
43 -4 88 -9 99 -11 11 -2 51 -6 90 -9 38 -3 81 -8 95 -10 14 -2 59 -6 100 -10
85 -7 96 -16 106 -82 19 -126 -43 -256 -156 -326 -39 -24 -46 -25 -423 -27
-199 -1 -243 1 -262 14 -47 31 -93 210 -101 385 -2 57 -1 108 2 113 4 6 29 7
63 3 31 -4 70 -8 86 -10z m2036 3 c8 -96 -6 -233 -34 -345 -44 -168 -36 -164
-324 -163 -430 2 -392 -2 -459 50 -101 79 -149 208 -121 325 5 22 13 43 16 47
3 3 40 9 81 12 41 4 89 9 105 11 30 5 110 13 195 20 25 3 63 7 85 9 22 3 69 8
105 11 36 4 117 12 180 19 153 18 170 18 171 4z m-1143 -622 c12 -4 23 -13 23
-19 1 -7 2 -126 3 -265 l1 -253 -40 3 -40 3 0 98 c0 59 -3 97 -10 98 -65 8
-62 14 -60 -103 l1 -87 -36 5 c-19 3 -37 10 -40 14 -9 14 -5 488 3 497 17 16
152 22 195 9z m158 1 c4 -3 21 -57 39 -119 l34 -113 0 118 c1 64 4 117 9 118
4 0 22 1 40 2 l32 2 0 -257 0 -258 -27 -6 c-16 -3 -34 -7 -40 -9 -8 -3 -22 27
-38 83 -41 137 -44 138 -44 16 l-1 -112 -40 -4 -40 -4 -1 56 c-2 219 0 480 4
487 6 9 64 9 73 0z m372 4 c13 -1 34 -12 47 -26 24 -23 25 -28 25 -178 0 -143
-2 -156 -22 -182 -20 -26 -134 -85 -190 -99 l-27 -6 0 244 0 245 52 3 c29 2
61 2 72 1 11 -1 30 -2 43 -2z m-813 -26 c17 -16 25 -36 26 -62 2 -56 -2 -86
-13 -106 -6 -12 -6 -23 2 -32 8 -9 12 -50 12 -106 -1 -150 -30 -168 -167 -103
l-75 36 0 199 0 199 95 0 c88 0 98 -2 120 -25z"/>
<path d="M1129 665 c-4 -46 -5 -142 -1 -152 6 -20 59 -16 64 5 4 14 3 127 -1
155 -2 14 -61 7 -62 -8z"/>
<path d="M1696 672 c-8 -13 -7 -292 1 -292 5 0 23 9 41 20 l33 20 -3 127 -3
128 -32 2 c-18 2 -34 -1 -37 -5z"/>
<path d="M830 635 l0 -46 37 3 c30 2 38 8 44 29 9 36 -2 51 -45 55 l-36 4 0
-45z"/>
<path d="M830 455 c0 -38 4 -47 24 -57 39 -17 56 -4 56 41 0 43 -18 61 -59 61
-18 0 -21 -6 -21 -45z"/>
<path d="M2300 1810 c-19 -4 -48 -13 -65 -22 -16 -8 -88 -37 -160 -63 -71 -26
-134 -51 -138 -55 -8 -7 -2 -24 21 -58 7 -11 19 -10 66 3 60 18 86 15 86 -8 0
-8 -20 -18 -52 -26 -76 -17 -80 -20 -66 -64 6 -20 14 -35 17 -33 3 2 33 7 66
10 33 4 67 9 75 11 8 2 42 6 75 10 207 22 231 29 241 70 11 44 -20 148 -58
198 -17 23 -65 35 -108 27z m34 -136 c7 -18 -47 -44 -102 -47 -27 -1 -37 2
-40 15 -2 12 9 20 45 31 64 20 90 20 97 1z"/>
</g>
</svg>
